# xmcd
#
# Track frame offsets:
#	150
#	14059
#	27801
#	55294
#	67722
#	83736
#	99654
#	114310
#	133927
#	150873
#	165436
#	182262
#
# Disc length: 2631 seconds
#
# Revision: 1
# Processed by: cddbd v1.5.2PL0 Copyright (c) Steve Scherf et al.
# Submitted via: audiograbber 1.83.01
#
DISCID=860a450c
DTITLE=Nathalie Carbonneau - Pour Toi
DYEAR=1900
DGENRE=Country
TTITLE0=Laisse Toi Aller (Nathalie Carbonneau)
TTITLE1=I Fall To Pieces (H. Cochran - H. Howard)
TTITLE2=Je L'aimerai (Nathalie Carbonneau)
TTITLE3=Honky Tonk Lady (Jean Marcoux)
TTITLE4=Mille Après Mille (Gérard Joly)
TTITLE5=Pour Toi (Nathalie Carbonneau)
TTITLE6=Au Bar Du Coin (Nathalie Carbonneau)
TTITLE7=Me And Bobby McGee (Kris Kristofferson)
TTITLE8=Je Me Battrai Pour Moi (Nathalie Carbonneau)
TTITLE9=T'es Parti (Nathalie Carbonneau)
TTITLE10=The Smile On My Face (Yvan Bédard)
TTITLE11=Travailler C'est Trop Dur (Zachary Richard)
EXTD=
EXTT0=
EXTT1=
EXTT2=
EXTT3=
EXTT4=
EXTT5=
EXTT6=
EXTT7=
EXTT8=
EXTT9=
EXTT10=
EXTT11=
PLAYORDER=
